<svg width="33" height="36" viewBox="0 0 33 36" fill="none" xmlns="http://www.w3.org/2000/svg">
<path d="M30 23.9969V11.9969C29.9995 11.4708 29.8606 10.9541 29.5973 10.4987C29.334 10.0432 28.9556 9.66497 28.5 9.40192L18 3.40192C17.5439 3.13862 17.0266 3 16.5 3C15.9734 3 15.4561 3.13862 15 3.40192L4.5 9.40192C4.04439 9.66497 3.66597 10.0432 3.40269 10.4987C3.13941 10.9541 3.00054 11.4708 3 11.9969V23.9969C3.00054 24.523 3.13941 25.0397 3.40269 25.4952C3.66597 25.9507 4.04439 26.3289 4.5 26.5919L15 32.5919C15.4561 32.8552 15.9734 32.9938 16.5 32.9938C17.0266 32.9938 17.5439 32.8552 18 32.5919L28.5 26.5919C28.9556 26.3289 29.334 25.9507 29.5973 25.4952C29.8606 25.0397 29.9995 24.523 30 23.9969Z" fill="#A9B0CA" stroke="#2C234D" stroke-width="4.5" stroke-linecap="round" stroke-linejoin="round"/>
</svg>
